<svg width="1728" height="708" viewBox="0 0 1728 708" fill="none" xmlns="http://www.w3.org/2000/svg">
<path d="M0 354L51.1403 401.126C102.281 449.137 204.263 542.062 307.14 554.674C408.974 566.4 511.404 495.6 612.79 401.126C715.667 307.538 818.544 188.062 919.93 188.726C1022.36 188.062 1124.19 307.538 1227.07 365.726C1329.05 424.8 1431.33 424.8 1534.21 354C1635.75 283.2 1738.47 141.6 1839.86 70.8C1942.59 0 2044.12 0 2096.31 0H2147H2095.86C2044.72 0 1942.74 0 1839.86 0C1738.03 0 1635.6 0 1534.21 0C1431.33 0 1328.46 0 1227.07 0C1124.64 0 1022.81 0 919.93 0C817.947 0 715.667 0 612.79 0C511.254 0 408.526 0 307.14 0C204.412 0 102.877 0 50.6931 0H0V354Z" fill="#DCEBF2"/>
</svg>
